<?xml version="1.0" encoding="utf-8"?>
<!-- Generator: Adobe Illustrator 23.0.0, SVG Export Plug-In . SVG Version: 6.00 Build 0)  -->
<svg version="1.1" id="Layer_1" xmlns="http://www.w3.org/2000/svg" xmlns:xlink="http://www.w3.org/1999/xlink" x="0px" y="0px"
	 viewBox="0 0 244 153" style="enable-background:new 0 0 244 153;" xml:space="preserve">
<style type="text/css">
	.st0{fill:#FBA81B;}
	.st1{fill:#013560;}
	.st2{fill:#FFFFFF;}
</style>
<g>
	<path class="st0" d="M238.16,14.16l-13.41,125.32c-0.62,5.78-7.18,8.8-11.97,5.52L105.26,71.32c-5-3.42-4.25-11.01,1.32-13.39
		L227.51,6.28C232.91,3.98,238.79,8.33,238.16,14.16"/>
	<g>
		<path class="st1" d="M137.07,59.85v1.18c0,0.6-0.16,1.09-0.49,1.46c-0.33,0.37-0.76,0.55-1.29,0.55h-0.09v0.01h-8.14v35.93
			c0,0.35-0.12,0.65-0.37,0.89c-0.25,0.24-0.54,0.36-0.89,0.36h-2.17c-0.35,0-0.65-0.12-0.89-0.36c-0.24-0.24-0.37-0.54-0.37-0.89
			V63.04h-0.01v0.01h-8.22v-0.02c-0.46-0.04-0.84-0.22-1.13-0.55c-0.33-0.37-0.49-0.85-0.49-1.46v-1.18c0-0.23,0.07-0.4,0.21-0.52
			c0.14-0.12,0.31-0.17,0.52-0.17h23.07c0.21,0,0.38,0.06,0.52,0.17C137,59.45,137.07,59.62,137.07,59.85"/>
		<path class="st1" d="M35.28,64.58c0-1.86,0.58-3.32,1.75-4.39c1.17-1.07,2.81-1.6,4.92-1.6c1,0,1.91,0.14,2.73,0.42
			c0.82,0.28,1.53,0.68,2.12,1.2c0.59,0.52,1.04,1.15,1.36,1.88c0.31,0.73,0.47,1.56,0.47,2.49v30.23c0,1.86-0.59,3.32-1.76,4.39
			c-1.17,1.07-2.81,1.6-4.92,1.6c-1.02,0-1.94-0.14-2.75-0.42c-0.81-0.28-1.51-0.68-2.1-1.2c-0.59-0.52-1.04-1.15-1.36-1.88
			c-0.31-0.73-0.47-1.56-0.47-2.49V64.58z M43.96,64.56c0-0.63-0.16-1.13-0.48-1.52c-0.32-0.38-0.83-0.57-1.51-0.57
			c-0.67,0-1.17,0.19-1.5,0.57c-0.33,0.38-0.5,0.89-0.5,1.52v30.27c0,0.63,0.16,1.13,0.48,1.52c0.32,0.38,0.83,0.58,1.52,0.58
			c0.67,0,1.16-0.19,1.5-0.58c0.33-0.38,0.5-0.89,0.5-1.52V64.56z"/>
		<path class="st1" d="M64.52,64.58c0-1.86,0.58-3.32,1.76-4.39c1.17-1.07,2.81-1.6,4.92-1.6c1,0,1.91,0.14,2.73,0.42
			c0.82,0.28,1.53,0.68,2.12,1.2c0.59,0.52,1.04,1.15,1.35,1.88c0.31,0.73,0.47,1.56,0.47,2.49v30.23c0,1.86-0.58,3.32-1.76,4.39
			c-1.17,1.07-2.81,1.6-4.92,1.6c-1.02,0-1.93-0.14-2.75-0.42c-0.81-0.28-1.51-0.68-2.1-1.2c-0.59-0.52-1.04-1.15-1.36-1.88
			c-0.31-0.73-0.47-1.56-0.47-2.49V64.58z M73.19,64.56c0-0.63-0.16-1.13-0.48-1.52c-0.32-0.38-0.83-0.57-1.51-0.57
			c-0.67,0-1.16,0.19-1.5,0.57c-0.33,0.38-0.5,0.89-0.5,1.52v30.27c0,0.63,0.16,1.13,0.48,1.52c0.32,0.38,0.83,0.58,1.51,0.58
			c0.67,0,1.16-0.19,1.5-0.58c0.33-0.38,0.5-0.89,0.5-1.52V64.56z"/>
		<path class="st1" d="M104.38,73.54c-0.67,0-1.18-0.19-1.52-0.58c-0.34-0.38-0.51-0.88-0.51-1.48v-6.91c0-0.63-0.17-1.13-0.5-1.52
			c-0.33-0.38-0.83-0.58-1.5-0.58c-0.69,0-1.19,0.19-1.52,0.57c-0.32,0.38-0.48,0.89-0.48,1.52c0,1.88,0.12,3.51,0.36,4.88
			c0.24,1.37,0.57,2.58,0.99,3.62c0.42,1.05,0.88,1.99,1.4,2.82c0.52,0.84,1.05,1.67,1.58,2.51c0.53,0.84,1.06,1.72,1.58,2.67
			c0.52,0.94,0.99,2.04,1.4,3.31c0.42,1.27,0.75,2.74,0.99,4.43c0.24,1.69,0.36,3.69,0.36,6.01c0,0.93-0.16,1.76-0.47,2.49
			c-0.31,0.73-0.76,1.36-1.36,1.88c-0.59,0.52-1.3,0.92-2.12,1.2c-0.82,0.28-1.73,0.42-2.73,0.42c-2.11,0-3.75-0.54-4.92-1.6
			c-1.17-1.07-1.75-2.53-1.75-4.39v-8.57c0-0.21,0.06-0.38,0.17-0.52c0.12-0.14,0.29-0.21,0.52-0.21h1.95
			c0.67,0,1.18,0.19,1.52,0.58c0.34,0.38,0.51,0.88,0.51,1.48v7.26c0,0.63,0.17,1.13,0.5,1.52c0.33,0.39,0.83,0.58,1.5,0.58
			c0.69,0,1.19-0.19,1.51-0.57c0.32-0.38,0.48-0.89,0.48-1.52c0-2.23-0.12-4.13-0.37-5.72c-0.24-1.58-0.57-2.95-0.99-4.1
			c-0.42-1.15-0.88-2.15-1.41-3c-0.52-0.85-1.05-1.66-1.58-2.44c-0.53-0.78-1.06-1.59-1.58-2.42c-0.52-0.84-0.99-1.82-1.4-2.96
			c-0.42-1.14-0.75-2.47-0.99-4.01c-0.24-1.53-0.36-3.4-0.36-5.61c0-0.93,0.16-1.76,0.47-2.49c0.31-0.73,0.76-1.36,1.36-1.88
			c0.59-0.52,1.29-0.92,2.1-1.2c0.81-0.28,1.73-0.42,2.75-0.42c2.11,0,3.75,0.53,4.92,1.6c1.17,1.07,1.76,2.53,1.76,4.39v8.22
			c0,0.21-0.06,0.38-0.17,0.52c-0.12,0.14-0.29,0.21-0.52,0.21H104.38z"/>
		<path class="st1" d="M153.56,58.94c0.21,0,0.38,0.06,0.52,0.17c0.14,0.12,0.21,0.29,0.21,0.52v1.18c0,0.6-0.16,1.09-0.49,1.45
			c-0.33,0.37-0.75,0.55-1.29,0.55h-4.27v14.95h4.63c0.21,0,0.38,0.06,0.52,0.17c0.14,0.12,0.21,0.29,0.21,0.52v1.18
			c0,0.6-0.16,1.09-0.49,1.46c-0.33,0.37-0.76,0.55-1.29,0.55h-3.59v14.49h4.27c0.53,0,0.96,0.19,1.29,0.55
			c0.32,0.37,0.49,0.85,0.49,1.46v1.18c0,0.23-0.07,0.4-0.21,0.52c-0.14,0.12-0.31,0.17-0.52,0.17h-9.3c-0.23,0-0.41-0.07-0.52-0.21
			c-0.12-0.14-0.17-0.31-0.17-0.52V59.67c0-0.21,0.06-0.38,0.17-0.52c0.12-0.14,0.29-0.21,0.52-0.21H153.56z"/>
		<path class="st1" d="M176.81,59.16c1,0,1.9,0.14,2.71,0.43c0.81,0.29,1.51,0.69,2.08,1.2c0.58,0.51,1.03,1.14,1.34,1.88
			c0.31,0.74,0.47,1.57,0.47,2.47v12.67c0,1.02-0.2,1.86-0.61,2.51c-0.41,0.65-0.97,1.17-1.69,1.57c0.72,0.39,1.29,0.91,1.69,1.55
			c0.41,0.64,0.61,1.46,0.61,2.45V99.5c0,0.21-0.06,0.38-0.17,0.52c-0.12,0.14-0.29,0.21-0.52,0.21h-1.96
			c-0.68,0-1.18-0.19-1.52-0.57c-0.34-0.38-0.51-0.88-0.51-1.48v-12.3c0-0.63-0.16-1.13-0.46-1.51c-0.31-0.38-0.82-0.57-1.53-0.57
			h-2v14.38c0,0.6-0.17,1.1-0.51,1.48c-0.34,0.38-0.84,0.57-1.52,0.57h-1.96c-0.23,0-0.41-0.07-0.52-0.21
			c-0.12-0.14-0.17-0.31-0.17-0.52V59.89c0-0.21,0.06-0.38,0.17-0.52c0.12-0.14,0.29-0.21,0.52-0.21H176.81z M174.74,63.04v16.86h2
			c0.69,0,1.19-0.2,1.51-0.59c0.32-0.39,0.48-0.89,0.48-1.5V65.13c0-0.6-0.17-1.1-0.5-1.5c-0.33-0.39-0.83-0.59-1.5-0.59H174.74z"/>
		<path class="st1" d="M12.83,58.93c1,0,1.9,0.14,2.71,0.44c0.81,0.29,1.51,0.69,2.09,1.2c0.58,0.51,1.03,1.14,1.34,1.88
			c0.31,0.74,0.47,1.57,0.47,2.47v12.67c0,1.02-0.2,1.86-0.61,2.51c-0.41,0.65-0.97,1.17-1.69,1.57c0.72,0.4,1.29,0.91,1.69,1.55
			c0.41,0.64,0.61,1.46,0.61,2.46v13.61c0,0.21-0.06,0.38-0.17,0.52c-0.12,0.14-0.29,0.21-0.52,0.21h-1.95
			c-0.68,0-1.18-0.19-1.52-0.57c-0.34-0.38-0.51-0.88-0.51-1.48V85.66c0-0.63-0.16-1.13-0.47-1.52c-0.31-0.38-0.82-0.57-1.53-0.57
			h-2v14.38c0,0.6-0.17,1.1-0.51,1.48c-0.34,0.38-0.84,0.57-1.52,0.57H6.79c-0.23,0-0.41-0.07-0.52-0.21
			c-0.12-0.14-0.17-0.31-0.17-0.52V59.66c0-0.21,0.06-0.38,0.17-0.52c0.12-0.14,0.29-0.21,0.52-0.21H12.83z M10.76,62.81v16.86h2
			c0.69,0,1.19-0.2,1.51-0.59c0.32-0.39,0.48-0.89,0.48-1.5V64.9c0-0.6-0.17-1.1-0.5-1.5c-0.33-0.39-0.83-0.59-1.5-0.59H10.76z"/>
		<path class="st1" d="M49.13,115.82c0.06-0.6,0.13-1.07,0.22-1.42c0.09-0.35,0.18-0.62,0.28-0.79c0.1-0.18,0.22-0.3,0.34-0.35
			c0.12-0.05,0.24-0.08,0.36-0.08h0.98c0.09,0,0.15,0.03,0.19,0.08c0.04,0.05,0.06,0.12,0.06,0.2v14.72c0,0.08-0.02,0.14-0.06,0.2
			c-0.04,0.05-0.11,0.08-0.19,0.08h-0.72c-0.25,0-0.44-0.07-0.57-0.21c-0.13-0.14-0.19-0.33-0.18-0.55l0.39-9.83l-1.2,9.95
			c-0.02,0.18-0.12,0.33-0.3,0.46c-0.18,0.13-0.38,0.19-0.59,0.19h-0.03c-0.22,0-0.42-0.06-0.6-0.19c-0.18-0.13-0.28-0.28-0.3-0.46
			L46,117.83l0.39,9.86c0.01,0.22-0.05,0.41-0.18,0.55c-0.13,0.14-0.32,0.21-0.57,0.21h-0.72c-0.09,0-0.15-0.03-0.19-0.08
			c-0.04-0.05-0.07-0.12-0.07-0.2v-14.72c0-0.08,0.02-0.14,0.07-0.2c0.04-0.05,0.11-0.08,0.19-0.08h0.88c0.12,0,0.24,0.02,0.36,0.07
			c0.12,0.05,0.23,0.16,0.34,0.34c0.1,0.18,0.2,0.45,0.29,0.79c0.08,0.35,0.16,0.83,0.22,1.43l1.13,8.1L49.13,115.82z"/>
		<path class="st1" d="M77.29,113.19c0.08,0,0.14,0.02,0.19,0.06c0.05,0.04,0.08,0.11,0.08,0.19v0.44c0,0.22-0.06,0.4-0.18,0.54
			c-0.12,0.14-0.28,0.21-0.48,0.21h-1.59v5.55h1.72c0.08,0,0.14,0.02,0.2,0.06c0.05,0.04,0.08,0.11,0.08,0.19v0.44
			c0,0.22-0.06,0.41-0.18,0.54c-0.12,0.14-0.28,0.21-0.48,0.21h-1.33V127h1.59c0.2,0,0.36,0.07,0.48,0.21
			c0.12,0.14,0.18,0.32,0.18,0.54v0.44c0,0.09-0.03,0.15-0.08,0.19c-0.05,0.04-0.12,0.07-0.19,0.07h-3.45
			c-0.09,0-0.15-0.03-0.19-0.08c-0.04-0.05-0.07-0.12-0.07-0.2v-14.72c0-0.08,0.02-0.14,0.07-0.19c0.04-0.05,0.11-0.08,0.19-0.08
			H77.29z"/>
		<path class="st1" d="M101.71,113.19c0.37,0,0.71,0.05,1.01,0.15c0.3,0.1,0.56,0.25,0.78,0.45c0.21,0.19,0.38,0.43,0.5,0.71
			c0.12,0.28,0.17,0.58,0.17,0.92v10.81c0,0.69-0.22,1.23-0.65,1.63c-0.43,0.4-1.05,0.6-1.83,0.6h-2.22c-0.09,0-0.15-0.03-0.19-0.08
			c-0.04-0.05-0.06-0.12-0.06-0.2v-14.72c0-0.08,0.02-0.14,0.06-0.19c0.04-0.05,0.11-0.08,0.19-0.08H101.71z M101.68,127
			c0.26,0,0.45-0.07,0.57-0.22c0.12-0.15,0.18-0.33,0.18-0.56v-10.81c0-0.22-0.06-0.41-0.17-0.56c-0.12-0.14-0.31-0.22-0.58-0.22
			h-0.75V127H101.68z"/>
		<path class="st1" d="M126.16,113.85c0-0.2,0.07-0.36,0.21-0.48c0.14-0.12,0.32-0.18,0.54-0.18h0.73c0.09,0,0.15,0.03,0.19,0.08
			c0.04,0.05,0.06,0.12,0.06,0.19v14.53c0,0.13-0.04,0.24-0.14,0.33c-0.09,0.09-0.2,0.13-0.33,0.13h-0.8
			c-0.13,0-0.24-0.04-0.33-0.13c-0.09-0.09-0.14-0.2-0.14-0.33V113.85z"/>
		<path class="st1" d="M152.69,113.19c0.08,0,0.14,0.03,0.18,0.08c0.04,0.05,0.07,0.11,0.08,0.18l1.42,14.68
			c0.01,0.08-0.02,0.15-0.07,0.22c-0.06,0.07-0.14,0.1-0.27,0.1h-0.63c-0.21,0-0.39-0.06-0.54-0.19c-0.14-0.13-0.22-0.28-0.24-0.46
			l-0.13-2.08h-1.07l-0.13,2.08c-0.02,0.18-0.1,0.34-0.24,0.46s-0.32,0.19-0.54,0.19h-0.63c-0.12,0-0.21-0.04-0.26-0.1
			c-0.06-0.07-0.08-0.14-0.07-0.22l1.42-14.68c0.01-0.07,0.03-0.13,0.08-0.18c0.04-0.05,0.1-0.08,0.18-0.08H152.69z M151.51,124.27
			h0.89l-0.45-7.36L151.51,124.27z"/>
	</g>
	<g>
		<path class="st2" d="M183.21,13.77c-0.23-0.03-0.46-0.06-0.69-0.08c-2.72-0.32-5.32,1.06-6.48,3.54
			c-1.04,2.22-0.84,4.39,0.53,6.42c0.84,1.24,1.72,2.45,2.57,3.67c4.74,6.79,9.47,13.58,14.21,20.37c0.18,0.26,0.36,0.51,0.54,0.77
			c0.49,0.71,0.42,1.65-0.17,2.27c-0.59,0.62-1.54,0.75-2.26,0.3c-0.13-0.08-0.24-0.19-0.33-0.3c-2.38-3.08-4.77-6.16-7.15-9.24
			c-2.3-2.97-4.6-5.94-6.9-8.92c-0.84-1.09-1.93-1.74-3.29-1.95c-2.04-0.32-4.2,0.79-5.11,2.66c-0.79,1.62-0.75,3.23,0.16,4.8
			c1.75,3.04,3.51,6.07,5.26,9.11c1.56,2.71,3.12,5.41,4.68,8.12c0.35,0.61,0.71,1.23,1.06,1.84c0.29,0.49,0.67,0.65,1.22,0.51
			c1.62-0.41,3.25-0.73,4.9-0.95c1.28-0.17,2.55-0.13,3.83,0c1.21,0.12,2.39,0.36,3.55,0.71c3.6,1.08,6.67,3,9.18,5.81
			c0.43,0.47,0.81,0.98,1.2,1.48c0.15,0.2,0.33,0.33,0.58,0.4c3.37,1.04,7.59-0.3,9.61-3.98c1.63-2.98,1.31-6.53-0.76-9.21
			c-1-1.29-1.94-2.62-2.91-3.93c-3.82-5.18-7.63-10.36-11.45-15.54c-3.97-5.4-7.95-10.79-11.92-16.19
			c-0.81-1.09-1.85-1.85-3.13-2.29c-0.08-0.02-0.14-0.07-0.21-0.1L183.21,13.77z"/>
		<path class="st2" d="M190.06,118.54c-0.3,1.16-0.58,2.33-0.78,3.51c-0.35,2.03-0.46,4.07-0.07,6.11c0.35,1.88,1.09,3.59,2.15,5.17
			c0.6,0.9,1.23,1.78,2.02,2.54c1.46,1.39,3.18,2.28,5.15,2.67c4.52,0.89,9.11-1.31,11.19-5.42c1.5-2.96,1.56-6,0.2-9.04
			c-0.24-0.53-0.55-1.03-0.85-1.52c-1.6-2.66-2.99-5.42-4.25-8.25c-2.27-5.1-4.05-10.36-5.27-15.81c-0.12-0.54-0.49-0.86-0.99-0.84
			c-0.44,0.02-0.74,0.25-0.9,0.65c-0.32,0.8-0.62,1.62-0.94,2.43c-0.37,0.94-0.74,1.88-1.11,2.82c-0.36,0.91-0.72,1.83-1.08,2.75
			c-0.38,0.95-0.75,1.89-1.12,2.84c-0.33,0.84-0.66,1.69-0.97,2.53c-0.39,1.05-0.78,2.1-1.15,3.15
			C190.85,116.05,190.46,117.3,190.06,118.54"/>
		<path class="st2" d="M199.59,92.83c-0.05,0.28,0,0.54,0.18,0.76c0.19,0.24,0.42,0.41,0.76,0.47c1.08,0.19,2.16,0.43,3.24,0.64
			c1.37,0.28,2.74,0.55,4.1,0.84c1,0.2,2,0.41,3,0.61c1.39,0.28,2.77,0.56,4.15,0.84c0.95,0.19,1.9,0.39,2.85,0.58l2.73,0.56
			c0.47,0.09,0.87-0.09,1.08-0.5c0.2-0.38,0.13-0.84-0.21-1.15c-0.83-0.78-1.66-1.54-2.49-2.32c-2.37-2.21-4.74-4.41-7.11-6.62
			c-0.07-0.06-0.12-0.12-0.17-0.21c0.3,0.12,0.59,0.23,0.88,0.36c1.15,0.46,2.3,0.93,3.46,1.4c1.25,0.51,2.5,1.02,3.75,1.53
			c1.25,0.51,2.51,1.01,3.75,1.52c1.25,0.51,2.5,1.02,3.75,1.53c0.65,0.27,1.31,0.54,1.96,0.8c0.07,0.03,0.15,0.04,0.23,0.06l0,0
			c0.47,0.09,0.93-0.2,1.06-0.67c0.05-0.19,0.04-0.39-0.03-0.56c-0.06-0.22-0.2-0.39-0.37-0.55c-6.98-6.4-13.96-12.81-20.94-19.21
			c-0.11-0.1-0.23-0.21-0.37-0.27c-0.7-0.31-1.42,0.21-1.36,0.98c0.04,0.56,0.1,1.12,0.12,1.68c0.08,2.41-0.27,4.77-1.07,7.05
			c-1.28,3.69-3.45,6.75-6.5,9.18C199.81,92.33,199.63,92.53,199.59,92.83"/>
	</g>
</g>
</svg>
